# xmcd
#
# Track frame offsets:
#	150
#	16052
#	30345
#	48720
#	59179
#	71968
#	82176
#	102693
#	112204
#	127441
#	138634
#	150691
#	162943
#	176017
#	190906
#	206436
#	217212
#	228785
#	246363
#	255108
#
# Disc length: 3552 seconds
#
# Revision: 1
# Processed by: cddbd v1.5.2PL0 Copyright (c) Steve Scherf et al.
# Submitted via: audiograbber 1.83.01
#
DISCID=380dde14
DTITLE=Shaun Frahne - Hurt
DYEAR=2013
DGENRE=COUNTRY
TTITLE0=Amazing Grace
TTITLE1=The Green Green Grass Of Home
TTITLE2=Honey
TTITLE3=Hello May Lou
TTITLE4=If You Love Me Let Me Know
TTITLE5=Its Over
TTITLE6=I Just Cant Help Believing
TTITLE7=Kiss An Angel Good Morning
TTITLE8=Live Turned Her That Way
TTITLE9=Stand By Me
TTITLE10=How Great Thou Art
TTITLE11=Lead Me Guide Me
TTITLE12=Let Me Be There
TTITLE13=Something
TTITLE14=Shes Not Crying Anymore
TTITLE15=Try A Little Kindness
TTITLE16=Sweetcaroline
TTITLE17=Suspicious Minds
TTITLE18=Hurt
TTITLE19=Words
EXTD=
EXTT0=
EXTT1=
EXTT2=
EXTT3=
EXTT4=
EXTT5=
EXTT6=
EXTT7=
EXTT8=
EXTT9=
EXTT10=
EXTT11=
EXTT12=
EXTT13=
EXTT14=
EXTT15=
EXTT16=
EXTT17=
EXTT18=
EXTT19=
PLAYORDER=
